<mxfile host="65bd71144e">
    <diagram id="Fk2u0cHwF3l7_IV-_ElW" name="Page-1">
        <mxGraphModel dx="1072" dy="563" grid="1" gridSize="10" guides="1" tooltips="1" connect="1" arrows="1" fold="1" page="1" pageScale="1" pageWidth="850" pageHeight="1100" math="0" shadow="0">
            <root>
                <mxCell id="0"/>
                <mxCell id="1" parent="0"/>
                <mxCell id="2" value="" style="whiteSpace=wrap;html=1;aspect=fixed;fillColor=#f9f7ed;strokeColor=#36393d;shadow=1;rounded=1;" vertex="1" parent="1">
                    <mxGeometry x="290" y="80" width="80" height="80" as="geometry"/>
                </mxCell>
                <mxCell id="3" value="" style="whiteSpace=wrap;html=1;aspect=fixed;fillColor=#f9f7ed;strokeColor=#36393d;rounded=1;shadow=1;" vertex="1" parent="1">
                    <mxGeometry x="385" y="80" width="80" height="80" as="geometry"/>
                </mxCell>
                <mxCell id="4" value="" style="whiteSpace=wrap;html=1;aspect=fixed;fillColor=#f9f7ed;strokeColor=#36393d;rounded=1;shadow=1;" vertex="1" parent="1">
                    <mxGeometry x="480" y="80" width="80" height="80" as="geometry"/>
                </mxCell>
                <mxCell id="5" value="" style="whiteSpace=wrap;html=1;aspect=fixed;fillColor=#f9f7ed;strokeColor=#36393d;rounded=1;shadow=1;" vertex="1" parent="1">
                    <mxGeometry x="290" y="170" width="80" height="80" as="geometry"/>
                </mxCell>
                <mxCell id="6" value="" style="whiteSpace=wrap;html=1;aspect=fixed;fillColor=#f9f7ed;strokeColor=#36393d;rounded=1;shadow=1;" vertex="1" parent="1">
                    <mxGeometry x="385" y="170" width="80" height="80" as="geometry"/>
                </mxCell>
                <mxCell id="7" value="" style="whiteSpace=wrap;html=1;aspect=fixed;fillColor=#f9f7ed;strokeColor=#36393d;rounded=1;shadow=1;" vertex="1" parent="1">
                    <mxGeometry x="480" y="170" width="80" height="80" as="geometry"/>
                </mxCell>
                <mxCell id="8" value="" style="whiteSpace=wrap;html=1;aspect=fixed;fillColor=#f9f7ed;strokeColor=#36393d;rounded=1;shadow=1;" vertex="1" parent="1">
                    <mxGeometry x="290" y="260" width="80" height="80" as="geometry"/>
                </mxCell>
                <mxCell id="9" value="" style="whiteSpace=wrap;html=1;aspect=fixed;fillColor=#f9f7ed;strokeColor=#36393d;rounded=1;shadow=1;" vertex="1" parent="1">
                    <mxGeometry x="385" y="260" width="80" height="80" as="geometry"/>
                </mxCell>
                <mxCell id="10" value="" style="whiteSpace=wrap;html=1;aspect=fixed;fillColor=#f9f7ed;strokeColor=#36393d;rounded=1;shadow=1;glass=0;" vertex="1" parent="1">
                    <mxGeometry x="480" y="260" width="80" height="80" as="geometry"/>
                </mxCell>
                <mxCell id="11" value="New game" style="rounded=1;whiteSpace=wrap;html=1;shadow=1;glass=0;sketch=0;fillColor=#f5f5f5;gradientColor=#b3b3b3;strokeColor=#666666;fontStyle=1;fontColor=#1A1A1A;" vertex="1" parent="1">
                    <mxGeometry x="310" y="400" width="90" height="40" as="geometry"/>
                </mxCell>
                <mxCell id="12" value="Reset" style="rounded=1;whiteSpace=wrap;html=1;shadow=1;glass=0;sketch=0;fillColor=#f5f5f5;strokeColor=#666666;gradientColor=#b3b3b3;fontStyle=1;fontColor=#1A1A1A;" vertex="1" parent="1">
                    <mxGeometry x="425" y="400" width="90" height="40" as="geometry"/>
                </mxCell>
                <mxCell id="13" value="Text" style="text;html=1;strokeColor=none;fillColor=none;align=center;verticalAlign=middle;whiteSpace=wrap;rounded=0;shadow=1;glass=0;sketch=0;fontColor=#1A1A1A;" vertex="1" parent="1">
                    <mxGeometry x="450" y="250" width="60" height="30" as="geometry"/>
                </mxCell>
                <object label="Tic Tac Toe" id="14">
                    <mxCell style="text;html=1;strokeColor=#33FF33;fillColor=#FFE6CC;align=center;verticalAlign=middle;whiteSpace=wrap;rounded=0;shadow=1;glass=0;sketch=0;fontColor=#1A1A1A;" vertex="1" parent="1">
                        <mxGeometry width="850" height="50" as="geometry"/>
                    </mxCell>
                </object>
            </root>
        </mxGraphModel>
    </diagram>
</mxfile>